<?xml version="1.0" encoding="utf-8" ?><svg xmlns="http://www.w3.org/2000/svg" xmlns:xlink="http://www.w3.org/1999/xlink" width="1024" height="1024" viewBox="0 0 1024 1024"><path fill="#01FA98" fill-opacity="0.98823529" d="M383.024 501.174C377.228 498.269 369.76 494.732 364.281 491.45C331.907 472.063 295.583 443.525 277.338 409.923C259.283 376.67 254.582 331.311 266.024 295.252C281.558 246.296 322.743 208.111 367.331 184.795C432.077 150.937 508.106 144.403 579.67 153.955C597.554 156.342 614.591 159.5 631.779 164.822C638.355 166.42 647.811 169.967 654.102 172.577C689.347 186.818 719.081 212.011 738.918 244.438C740.15 246.469 741.3 248.231 742.144 250.45C737.462 252.519 712.466 260.84 707.957 261.313C705.181 239.397 701.856 225.153 689.888 205.779C680.811 214.39 667.002 227.718 657.337 235.294C662.182 245.314 661.924 256.357 650.348 261.268C645.522 263.353 640.047 263.338 635.232 261.227C614.857 252.09 628.567 218.53 652.817 231.36C653.48 231.714 654.135 232.082 654.783 232.465C656.323 230.681 657.928 229.196 659.669 227.613C669.106 219.026 678.472 210.585 687.35 201.414C673.833 183.968 650.62 177.037 630.186 170.08C621.453 178.5 608.906 191.181 599.806 198.625C606.176 207.255 607.19 217.502 597.617 224.344C593.498 227.288 588.374 228.467 583.382 227.619C572.272 225.73 568.365 215.737 570.612 205.54C570.784 204.778 570.973 204.019 571.179 203.265C555.305 202.174 543.092 202.778 527.541 202.903C524.167 213.476 515.695 220.457 504.247 216.864C499.939 215.471 496.374 212.402 494.358 208.348C493.577 206.786 492.787 204.263 492.26 202.568C478.898 202.396 462.445 202.114 449.233 203.046C428.528 222.04 407.862 242.651 387.59 262.243L317.588 329.625C301.645 345.215 285.788 361.324 269.545 376.546C273.075 388.232 277.382 400.46 284.65 410.451C301.323 395.515 315.748 380.287 331.762 365.65C324.089 347.657 339.029 336.478 356.581 342.581L379.229 321.564C383.923 317.198 390.262 311.528 394.237 306.678C395.995 304.533 399.387 295.722 400.741 292.835C403.255 287.582 406.211 282.552 409.576 277.798C452.311 217.819 558.706 214.758 607.755 268.246C614.727 275.863 620.617 284.403 625.258 293.628C637.804 288.8 658.501 284.11 672.225 279.856C680.429 277.314 700.632 270.878 708.489 269.238C719.533 266.024 735.804 260.48 746.319 258.071C764.391 290.364 769.524 337.304 758.854 372.694C754.163 388.257 741.155 418.56 728.087 428.5C727.791 428.259 727.495 428.018 727.199 427.776C700.3 427.251 673.104 427.161 646.211 427.933C645.585 427.951 644.466 428.217 644.045 428.31C643.496 429.194 643.621 428.792 643.487 429.442C638.386 432.69 630.057 441.646 625.508 446.173C615.184 456.458 604.673 466.556 593.983 476.461C590.786 479.451 582.772 487.298 579.533 489.637C576.026 489.641 567.58 498.614 564.656 501.436C557.092 501.378 549.583 499.929 543.557 505.793C534.073 515.022 533.581 528.948 543.803 538.222C548.346 542.421 554.452 544.504 560.613 543.958C567.24 543.426 572.85 539.844 575.907 533.905C577.615 530.9 578.402 523.79 577.547 520.414C577.611 518.246 577.246 518.261 578.29 516.85C585.906 515.383 611.546 518.348 620.369 519.27C624.403 519.691 632.22 521.71 635.819 520.902C615.569 539.574 588.573 564.09 570.058 583.89C563.353 583.501 538.431 564.456 533.871 569.265C531.247 568.447 527.409 566.8 524.754 565.753C525.771 564.746 525.944 564.96 526.134 563.953C522.155 562.495 507.36 558.376 505.687 556.223C507.553 552.957 520.95 551.5 522.348 545.528C523.057 542.498 521.647 539.46 518.347 538.975C515.778 538.424 512.847 538.217 510.214 539.362C502.851 542.564 481.428 547.537 483.522 558.729C483.883 560.656 487.876 563.739 489.694 564.275C562.504 586.113 657.586 640.742 651.717 729.261C649.355 762.523 633.776 793.455 608.456 815.154C588.952 832.136 565.876 842.113 540.861 847.477C536.998 848.305 524.312 849.708 522.188 850.484C515.072 850.727 510.296 851.011 503.117 850.516C498.463 849.6 490.584 848.894 485.311 848.063C468.7 845.446 455.683 840.626 441.183 832.01C437.664 829.919 433.351 827.737 429.773 825.431C424.809 822.231 409.996 809.619 405.557 808.199C403.915 806.926 401.161 803.572 399.98 801.883C399.971 801.333 400.03 800.317 399.749 799.83C393.739 789.44 387.814 779.915 382.94 768.909C379.435 760.995 378.254 746.811 374.684 739.87L373.803 739.978C371.488 733.48 372.852 708.292 374.469 700.301L375.183 702.98L374.942 702.569L375.517 702.212C382.67 666.161 405.156 635.025 433.488 612.376C438.435 608.422 445.727 601.382 451.137 598.585C461.835 602.134 476.74 607.624 487.274 610.582C456.199 627.237 420.294 661.012 409.944 694.828C400.406 725.992 407.83 763.803 431.263 787C483.475 838.688 591.775 823.725 613.298 748.241C613.753 746.657 614.19 745.068 614.609 743.474C620.298 721.866 617.854 698.921 607.739 678.997C603.444 670.696 596.646 661.777 590.31 654.905C553.954 615.433 500.613 600.685 451.38 584.426C448.575 583.5 436.31 581.843 435.263 579.784C446.617 570.722 457.329 561.673 469.142 552.857C476.749 547.18 487.913 539.391 493.747 531.958C496.208 528.823 492.979 523.817 488.756 525.897C476.787 531.078 461.299 546.225 450.425 553.701C448.109 552.558 443.749 555.381 442.905 557.004C436.89 561.274 420.037 572.066 428.414 580.294C434.642 581.874 440.233 582.275 445.846 585.237C444.408 586.674 442.117 588.681 441.327 590.43L441.606 591.514C432.979 599.056 421.424 607.292 413.343 615.037C386.558 640.707 367.304 671.844 364.727 709.578C364.502 713.435 364.413 717.299 364.46 721.162C358.513 721.946 345.795 722.655 343.417 729.115C345.043 735.225 360.116 730.838 364.647 729.879C365.599 736.883 366.286 743.92 366.706 750.975L364.978 751.822C364.148 754.66 367.454 763.696 368.295 767.171C358.161 776.78 349.76 786.6 340.473 795.539C340.122 791.145 340.5 787.79 337.395 784.789C336.918 769.421 335.869 750.545 340.094 735.64C317.326 735.46 294.557 735.591 271.793 736.034C266.652 740.074 260.386 746.621 255.56 751.357L228.366 778.19C233.211 791.946 239.214 805.265 246.31 818.006C256.759 806.454 268.195 796.326 278.737 784.553C275.876 778.806 274.189 773.957 276.176 767.466C280.362 753.791 302.041 751.175 308.495 764.275C310.549 768.459 310.591 775.672 308.701 779.812C303.608 790.97 292.367 791.727 282.771 787.495C271.339 798.925 259.255 810.899 248.179 822.61C257.378 834.882 263.202 844.822 273.655 856.831C294.139 834.448 316.658 812.908 337.822 790.977C338.695 793.629 338.483 794.55 339.011 796.892C332.641 804.474 322.54 813.236 315.575 820.747C307.311 829.658 298.295 838.353 289.508 846.739C285.263 850.791 280.696 855.861 276.293 859.5C279.824 864.337 296.96 879.397 302.379 884.577C305.459 880.739 308.924 877.255 312.419 873.8C324.345 862.01 336.757 850.695 347.929 838.167C348.229 835.285 348.512 834.091 347.939 831.219C349.092 825.554 346.017 817.031 344.337 811.327C350.255 803.999 366.549 787.718 373.785 780.834C376.064 786.315 378.888 793.133 382.094 798.038C394.287 816.697 417.648 838.7 438.086 847.076C439.719 847.737 441.377 848.334 443.056 848.867C444.798 849.597 444.775 849.239 445.528 850.561C444.452 854.929 434.829 861.185 433.237 866.513C430.59 869.279 426.481 873.325 424.286 876.281C420.654 875.263 405.831 860.539 402.302 856.969C405.156 851.252 406.786 846.175 405.13 839.651C403.801 834.568 400.446 830.251 395.848 827.708C382.953 820.44 365.682 829.047 365.495 843.976C365.436 848.657 365.811 850.764 367.172 855.04C363.589 858.445 360.435 860.574 361.148 865.918L360.655 866.983C361.596 869.002 363.803 871.429 365.274 873.224C368.824 870.031 371.646 867.15 373.879 862.887L375.401 861.386L377.475 862.784C381.097 867.645 388.273 866.713 392.64 863.436L393.676 863.261L394.554 864.128C397.579 870.295 418.419 888.565 424.205 894.293L453.672 923.935C457.554 927.837 472.123 945.031 476.713 945.315C480.372 948.531 485.22 952.622 488.589 955.997C485.17 955.647 480.302 955.32 477.08 954.638C473.759 951.434 451.019 947.756 446.457 950.326C434.879 948.502 423.771 945.667 412.427 942.796C334.018 922.949 265.559 876.91 231.565 801.487C208.909 752.072 206.811 695.68 225.733 644.718C253.843 570.597 313.83 532.257 383.024 501.174ZM340.873 572.527C347.484 581.244 348.204 591.455 338.639 598.481C334.746 601.365 329.864 602.579 325.074 601.855C320.693 601.227 316.753 598.849 314.156 595.265C303.005 580.058 316.806 561.886 336.749 568.966C364.031 544.387 391.046 519.513 417.79 494.349L448.303 466.033C453.321 461.346 459.722 455.679 464.374 450.774C437.201 433.49 422.212 420.836 404.886 392.54C402.583 395.64 392.117 405.23 388.832 408.375C379.817 417.007 370.486 426.651 361.192 434.876C375.138 463.158 340.035 472.013 332.361 452.68C330.608 448.207 330.716 443.219 332.662 438.827C336.897 429.143 346.81 426.501 355.993 430.996C356.725 431.357 357.451 431.727 358.172 432.107C366.849 424.048 375.472 415.931 384.041 407.758C390.133 401.869 396.944 394.786 403.088 389.173C390.961 360.785 387.755 345.073 392.903 314.25C387.787 319.21 382.588 323.915 377.423 328.805C371.478 334.433 365.879 340.266 359.571 345.53C362.796 350.345 364.902 354.512 363.793 360.654C362.95 365.263 360.205 369.304 356.231 371.787C348.797 376.482 340.419 374.393 333.769 369.419C324.852 378.002 316.031 386.684 307.309 395.464C302.35 400.425 291.988 411.091 286.414 414.956C311.634 448.901 335.174 468.116 372.528 489.314C376.688 491.675 392.788 497.955 393.228 501.712C391.654 504.253 372.754 511.99 368.601 513.865C310.548 540.084 269.218 572.247 238.754 628.511C243.732 627.78 255.979 628.118 261.704 628.162L298.949 628.324L355.355 628.375C362.405 628.385 374.734 627.93 381.103 628.36C382.895 627.829 386.976 617.763 388.246 615.272C393.219 605.344 398.808 595.737 404.979 586.505C409.376 579.978 418.74 567.261 424.283 562.502C438.239 550.609 453.578 539.583 468.588 528.95C482.109 519.373 495.175 508.193 508.624 498.877C512.77 495.304 517.54 491.682 521.859 488.264C523.431 486.646 525.493 485.008 527.267 483.567C542.803 470.948 557.55 457.455 572.692 444.392C602.694 415.64 628.842 387.601 630.058 342.952C633.855 203.566 398.561 197.918 395.954 336.872C394.986 389.278 435.698 431.672 479.825 453.787C481.224 454.488 482.134 455.766 482.209 457.296C478.86 460.645 471.711 455.874 468.933 453.598C441.732 477.713 413.832 504.824 386.94 529.753L360.298 554.337C354.26 559.799 346.111 566.639 340.873 572.527ZM369.352 233.245C371.106 238.181 371.517 243.045 369.189 247.905C367.297 251.854 363.842 255.092 359.679 256.503C350.528 259.607 345.278 254.219 342.512 254.452C339.083 254.74 273.551 321.303 265.832 329.162C265.494 345.51 265.064 354.856 268.903 371.054L331.066 310.882C360.382 282.255 389.896 253.832 419.608 225.615C425.146 220.331 442.956 201.972 448.13 198.831C459.723 197.803 480.592 198.685 492.761 198.982C494.108 188.562 501.678 181.857 512.572 183.356C521.856 184.634 525.492 190.948 527.778 199.256C543.771 198.412 558.221 199.339 573.892 199.072C582.802 193.37 586.849 192.694 596.795 196.458C602.791 190.488 608.889 184.623 615.089 178.865C617.932 176.176 622.875 171.214 625.865 168.993C595.882 160.92 567.794 156.123 536.62 155.436C530.383 155.298 522.796 154.893 516.664 155.233C496.246 155.677 461.912 157.315 441.2 164.237C438.704 165.071 424.693 179.638 421.786 182.419C407.948 195.655 393.742 209.16 380.305 222.864C376.728 226.518 373.244 229.964 369.352 233.245ZM698.858 372.632C704.166 368.339 709.092 375.981 717.428 362.397C717.535 359.693 717.254 353.123 718.536 351.413C715.578 344.973 708.664 341.322 701.677 342.511C694.691 343.701 689.374 349.434 688.713 356.49C688.053 363.546 692.214 370.166 698.858 372.632ZM347.409 845.845C334.277 858.598 318.26 873.957 305.819 886.968C313.664 892.371 321.637 897.586 329.73 902.609C332.752 904.388 336.103 906.267 339.053 908.106C348.468 899.566 357.544 890.659 366.261 881.406C361.454 874.52 357.663 868.248 354.182 860.549C353.223 858.428 348.278 846.624 347.409 845.845ZM423.827 940.158C411.317 929.018 399.247 917.394 387.644 905.312C382.454 899.976 373.152 890.316 368.678 884.508C361.895 892.933 351.003 902.757 342.97 910.504C360.046 918.228 384.827 930.198 403.104 934.495L423.827 940.158ZM296.252 784.793C302.8 782.916 306.627 776.128 304.843 769.554C303.06 762.98 296.328 759.057 289.729 760.747C285.376 761.861 281.961 765.233 280.791 769.572C279.62 773.91 280.877 778.542 284.079 781.695C287.281 784.847 291.933 786.031 296.252 784.793ZM295.803 673.884C289.283 675.915 285.584 682.785 287.476 689.346C289.369 695.906 296.159 699.75 302.758 697.997C307.153 696.83 310.572 693.376 311.697 688.97C312.821 684.564 311.474 679.894 308.176 676.764C304.878 673.633 300.144 672.532 295.803 673.884ZM355.665 688.551C349.5 688.721 326.718 690.113 323.259 687.774L322.734 686.789C322.945 686.162 323.072 685.292 323.571 685.219C332.568 683.899 350.701 684.43 359.29 684.468C362.872 669.547 372.435 646.838 379.415 632.973L262.306 632.746C253.854 632.748 245.402 632.823 236.951 632.969C223.017 661.773 217.415 691.15 218.016 723.028L239.133 701.772C244.875 695.947 250.903 689.409 257.458 684.573C265.318 684.505 273.721 684.571 281.531 684.227C285.199 666.893 305.252 661.996 314.969 677.233C320.304 685.598 316.736 697.028 307.452 701.515C303.129 703.658 298.13 703.992 293.56 702.443C288.387 700.637 284.571 696.647 282.29 691.741C281.894 690.882 281.52 690.011 281.169 689.132L258.504 689.491C245.536 700.914 232.558 717.123 218.782 728.654C219.447 736.217 220.42 747.076 222.136 754.389C223.446 761.07 224.612 767.046 226.817 773.542C239.882 760.225 254.967 744.651 268.446 731.935C284.627 732.077 300.81 732.089 316.991 731.97C323.364 731.952 335.026 731.571 341.077 732.041C343.436 717.716 349.347 701.689 355.665 688.551ZM513.264 212.202C519.791 210.326 523.593 203.549 521.793 197.001C519.993 190.453 513.26 186.572 506.692 188.297C502.375 189.43 499.001 192.796 497.857 197.11C496.713 201.424 497.977 206.02 501.165 209.143C504.353 212.266 508.974 213.435 513.264 212.202ZM630.803 245.505C630.732 249.191 632.316 252.714 635.12 255.107C637.925 257.5 641.654 258.51 645.283 257.86C652.019 256.653 656.477 250.182 655.206 243.457C653.936 236.732 647.424 232.335 640.711 233.67C635.038 234.797 630.915 239.722 630.803 245.505ZM346.42 434.172C339.954 435.011 335.37 440.903 336.148 447.377C336.925 453.851 342.773 458.491 349.254 457.775C355.823 457.05 360.539 451.105 359.751 444.543C358.964 437.981 352.974 433.322 346.42 434.172ZM589.176 222.802C595.105 221.75 599.376 216.524 599.225 210.505C599.139 207.048 597.587 203.791 594.958 201.546C592.328 199.301 588.868 198.28 585.441 198.736C581.065 199.319 577.348 202.224 575.724 206.328C574.1 210.433 574.824 215.094 577.615 218.513C580.407 221.932 584.83 223.573 589.176 222.802ZM351.879 228.771C345.302 229.813 340.826 236.004 341.897 242.576C342.968 249.149 349.179 253.597 355.747 252.497C362.273 251.403 366.688 245.24 365.623 238.708C364.558 232.177 358.415 227.735 351.879 228.771ZM684.908 339.035C689.591 335.324 692.637 333.224 698.516 331.522C704.006 311.486 708.457 294.405 707.827 273.187L707.206 273.001C681.656 282.441 653.012 288.575 627.381 297.132C635.607 303.407 643.901 309.592 652.262 315.686C662.897 323.809 673.784 331.596 684.908 339.035ZM328.521 572.337C324.089 572.225 319.941 574.508 317.664 578.311C315.388 582.114 315.336 586.849 317.528 590.701C319.72 594.554 323.817 596.927 328.25 596.913C334.969 596.891 340.425 591.477 340.499 584.758C340.573 578.04 335.237 572.507 328.521 572.337ZM348.812 369.092C354.062 368.164 358.063 363.874 358.622 358.572C359.023 354.772 357.583 351.009 354.748 348.447C351.913 345.885 348.024 344.832 344.284 345.614C337.891 346.951 333.754 353.17 334.991 359.583C336.227 365.995 342.381 370.229 348.812 369.092ZM339.99 250.757C337.243 245.88 335.639 241.682 337.32 235.921C338.656 231.419 341.817 227.683 346.035 225.62C353.817 221.806 360.953 224.337 367.016 229.748C381.049 215.774 395.169 201.887 409.375 188.088C416.887 180.892 425.236 173.91 432.265 166.422L432.209 165.775L431.968 165.607C422.299 168.532 412.996 171.271 403.477 174.74C339.977 197.884 272.82 250.058 266.004 322.276L270.9 317.621L317.732 272.041C324.742 265.245 333.455 257.524 339.99 250.757ZM590.128 434.319C591.285 434.236 591.967 433.829 593.078 433.384C593.808 431.374 619.946 410.297 623.806 407.321C641.759 393.482 661.972 380.963 674.674 361.522C677.496 357.147 678.991 347.573 680.408 342.49C663.417 331.548 646.541 317.521 629.928 305.392C639.465 337.699 636.251 365.47 620.162 395.254C615.391 404.102 609.634 412.381 603.001 419.935C598.86 424.653 593.985 429.477 590.128 434.319Z"/><path fill="#01FA98" fill-opacity="0.98823529" d="M506.065 275.273C535.672 273.498 564.871 279.531 581.013 306.796C591.118 323.863 592.118 342.361 587.481 361.393C581.53 385.822 563.985 405.436 545.583 421.652C539.81 426.718 535.354 431.047 528.712 435.058C526.706 434.582 524.831 433.877 522.883 433.202C485.367 419.307 440.615 385.785 437.227 342.906C435.933 326.534 439.783 310.449 450.84 297.897C465.714 281.012 484.551 276.837 506.065 275.273ZM525.332 428.639C527.165 429.157 527.412 429.607 529.224 428.583C534.332 425.7 538.365 421.337 542.748 417.529C569.39 394.381 591.392 363.94 583.392 326.688C578.678 304.733 560.831 288.175 539.252 282.777C530.213 280.532 521.239 279.6 511.933 279.846C509.864 279.901 506.067 279.829 504.253 280.229C474.789 282.035 446.604 296.416 442.717 328.178C436.469 379.236 485.282 410.892 525.332 428.639Z"/><path fill="#FEFDFE" d="M712.005 381.148C701.004 384.796 688.957 380.163 683.236 370.083C677.515 360.002 679.713 347.284 688.486 339.709C697.259 332.134 710.161 331.813 719.3 338.942C728.439 346.071 731.268 358.663 726.056 369.016C726.901 375.335 718.991 383.661 712.087 381.297L712.005 381.148ZM717.428 362.397C717.535 359.693 717.254 353.123 718.536 351.413C715.578 344.973 708.664 341.322 701.677 342.511C694.691 343.701 689.374 349.434 688.713 356.49C688.053 363.546 692.214 370.166 698.858 372.632C704.166 368.339 709.092 375.981 717.428 362.397Z"/><path fill="#01D26A" d="M726.056 369.016C726.901 375.335 718.991 383.661 712.087 381.297L712.005 381.148C718.11 379.124 723.163 374.761 726.056 369.016Z"/><path fill="#01FA98" fill-opacity="0.98823529" d="M698.858 372.632C692.214 370.166 688.053 363.546 688.713 356.49C689.374 349.434 694.691 343.701 701.677 342.511C708.664 341.322 715.578 344.973 718.536 351.413C717.254 353.123 717.535 359.693 717.428 362.397C709.092 375.981 704.166 368.339 698.858 372.632Z"/><path fill="#01D26A" d="M717.428 362.397C717.535 359.693 717.254 353.123 718.536 351.413C721.18 357.17 720.095 363.953 715.788 368.598C711.48 373.243 704.798 374.835 698.858 372.632C704.166 368.339 709.092 375.981 717.428 362.397Z"/><path fill="#01D26A" d="M508.624 498.877C508.411 502.984 488.877 517.096 484.837 520.123L454.504 542.904C443.235 551.279 427.662 562.293 418.501 572.911C407.045 586.189 396.747 605.026 388.739 620.664C387.593 622.902 385.584 629.184 383.447 629.477C382.501 628.786 382.253 628.572 381.103 628.36C382.895 627.829 386.976 617.763 388.246 615.272C393.219 605.344 398.808 595.737 404.979 586.505C409.376 579.978 418.74 567.261 424.283 562.502C438.239 550.609 453.578 539.583 468.588 528.95C482.109 519.373 495.175 508.193 508.624 498.877Z"/><path fill="#01D26A" d="M590.128 434.319C591.285 434.236 591.967 433.829 593.078 433.384C592.942 433.877 592.806 434.369 592.669 434.862C580.656 445.271 567.775 454.584 555.102 464.155C545.295 471.562 536.36 480.36 525.901 486.855C524.057 488.001 523.042 489.983 520.803 490.748C521.125 489.064 522.725 489.894 521.859 488.264C523.431 486.646 525.493 485.008 527.267 483.567C542.803 470.948 557.55 457.455 572.692 444.392C573.499 444.707 573.412 444.596 574.333 444.619C578.596 442.062 588.831 438.185 590.128 434.319Z"/><path fill="#FEFDFE" d="M624.627 149.867L630.73 151.421C634.583 152.684 640.165 154.718 643.938 155.713C648.514 157.765 653.165 159.62 657.737 161.684C704.572 182.827 743.129 221.998 761.552 270.186C771.568 296.387 774.264 322.047 772.022 349.922C773.455 351.464 773.423 351.871 773.234 354.101C768.464 410.444 725.793 447.786 686.79 483.291C676.636 492.535 667.733 502.189 657.917 511.718C656.748 512.869 655.245 513.804 655.541 515.303L656.536 515.736C688.902 523.918 718.906 539.557 744.15 561.403C772.853 587.288 796.396 617.437 807.094 655.061C809.156 662.314 812.097 673.562 812.039 681.008L812.042 681.753C812.085 684.941 812.942 689.356 813.356 692.686C816.321 716.502 814.571 739.824 810.349 763.445C810.714 768.916 808.261 778.114 806.736 783.396C797.453 815.552 779.729 843.496 757.723 868.485C714.805 917.22 654.45 944.056 591.708 956.554C578.265 959.232 564.92 962.005 551.236 962.914C541.349 963.614 530.4 964.416 520.494 964.56L508.615 965.188C510.361 966.392 514.242 968.94 515.62 970.226C520.219 973.253 535.396 982.748 537.422 986.887C533.442 984.631 519.208 975.384 515.883 972.943C510.568 969.715 505.419 966.222 500.454 962.478C495.598 959.949 494.182 956.71 488.589 955.997C485.22 952.622 480.372 948.531 476.713 945.315C472.123 945.031 457.554 927.837 453.672 923.935L424.205 894.293C418.419 888.565 397.579 870.295 394.554 864.128L393.676 863.261L392.64 863.436C388.273 866.713 381.097 867.645 377.475 862.784L375.401 861.386L373.879 862.887C371.646 867.15 368.824 870.031 365.274 873.224C363.803 871.429 361.596 869.002 360.655 866.983L361.148 865.918C360.435 860.574 363.589 858.445 367.172 855.04C365.811 850.764 365.436 848.657 365.495 843.976C365.682 829.047 382.953 820.44 395.848 827.708C400.446 830.251 403.801 834.568 405.13 839.651C406.786 846.175 405.156 851.252 402.302 856.969C405.831 860.539 420.654 875.263 424.286 876.281C426.481 873.325 430.59 869.279 433.237 866.513C434.829 861.185 444.452 854.929 445.528 850.561C444.775 849.239 444.798 849.597 443.056 848.867C441.377 848.334 439.719 847.737 438.086 847.076C417.648 838.7 394.287 816.697 382.094 798.038C378.888 793.133 376.064 786.315 373.785 780.834C366.549 787.718 350.255 803.999 344.337 811.327C346.017 817.031 349.092 825.554 347.939 831.219C347.152 828.355 341.109 810.758 341.453 809.349C341.145 806.218 340.328 802.294 339.662 799.211L339.011 796.892C338.483 794.55 338.695 793.629 337.822 790.977C338.276 788.892 337.745 786.94 337.395 784.789C340.5 787.79 340.122 791.145 340.473 795.539C349.76 786.6 358.161 776.78 368.295 767.171C367.454 763.696 364.148 754.66 364.978 751.822L366.706 750.975C366.286 743.92 365.599 736.883 364.647 729.879C360.116 730.838 345.043 735.225 343.417 729.115C345.795 722.655 358.513 721.946 364.46 721.162C364.413 717.299 364.502 713.435 364.727 709.578C367.304 671.844 386.558 640.707 413.343 615.037C421.424 607.292 432.979 599.056 441.606 591.514C443.917 589.898 446.423 588.232 448.595 586.459C465.761 592.068 486.875 598.279 503.173 605.112C499.992 606.927 496.748 608.505 493.472 610.138C481.264 604.674 463.796 599.962 450.658 595.511C417.357 619.304 382.046 654.435 374.991 696.37C374.774 697.658 374.529 699 374.469 700.301C372.852 708.292 371.488 733.48 373.803 739.978L374.684 739.87C378.254 746.811 379.435 760.995 382.94 768.909C387.814 779.915 393.739 789.44 399.749 799.83C400.03 800.317 399.971 801.333 399.98 801.883C401.161 803.572 403.915 806.926 405.557 808.199C409.996 809.619 424.809 822.231 429.773 825.431C433.351 827.737 437.664 829.919 441.183 832.01C455.683 840.626 468.7 845.446 485.311 848.063C490.584 848.894 498.463 849.6 503.117 850.516C510.296 851.011 515.072 850.727 522.188 850.484C524.312 849.708 536.998 848.305 540.861 847.477C565.876 842.113 588.952 832.136 608.456 815.154C633.776 793.455 649.355 762.523 651.717 729.261C657.586 640.742 562.504 586.113 489.694 564.275C487.876 563.739 483.883 560.656 483.522 558.729C481.428 547.537 502.851 542.564 510.214 539.362C512.847 538.217 515.778 538.424 518.347 538.975C521.647 539.46 523.057 542.498 522.348 545.528C520.95 551.5 507.553 552.957 505.687 556.223C507.36 558.376 522.155 562.495 526.134 563.953C525.944 564.96 525.771 564.746 524.754 565.753C527.409 566.8 531.247 568.447 533.871 569.265C538.431 564.456 563.353 583.501 570.058 583.89C588.573 564.09 615.569 539.574 635.819 520.902C632.22 521.71 624.403 519.691 620.369 519.27C611.546 518.348 585.906 515.383 578.29 516.85C577.246 518.261 577.611 518.246 577.547 520.414C578.402 523.79 577.615 530.9 575.907 533.905C572.85 539.844 567.24 543.426 560.613 543.958C554.452 544.504 548.346 542.421 543.803 538.222C533.581 528.948 534.073 515.022 543.557 505.793C549.583 499.929 557.092 501.378 564.656 501.436C567.58 498.614 576.026 489.641 579.533 489.637C582.772 487.298 590.786 479.451 593.983 476.461C604.673 466.556 615.184 456.458 625.508 446.173C630.057 441.646 638.386 432.69 643.487 429.442C643.621 428.792 643.496 429.194 644.045 428.31C644.466 428.217 645.585 427.951 646.211 427.933C673.104 427.161 700.3 427.251 727.199 427.776C727.495 428.018 727.791 428.259 728.087 428.5C741.155 418.56 754.163 388.257 758.854 372.694C769.524 337.304 764.391 290.364 746.319 258.071C735.804 260.48 719.533 266.024 708.489 269.238C708.146 266.586 708.079 263.982 707.957 261.313C712.466 260.84 737.462 252.519 742.144 250.45C741.3 248.231 740.15 246.469 738.918 244.438C719.081 212.011 689.347 186.818 654.102 172.577C647.811 169.967 638.355 166.42 631.779 164.822C629.479 158.823 628.008 155.303 624.627 149.867ZM478.442 901.664C475.293 895.368 470.64 894.661 469.851 886.011C468.863 875.179 477.598 868.02 485.751 862.928C475.212 861.231 469.385 860.175 459.373 856.641C449.896 865.065 440.598 874.759 431.115 883.494C431.474 885.084 437.129 890.229 438.649 891.585C447.544 899.517 455.346 908.466 463.804 916.803C464.473 917.463 465.485 916.678 466.102 916.254C470.453 911.348 474.515 906.942 478.442 901.664ZM480.684 934.042C485.929 939.074 495.619 948.02 499.64 953.438C503.912 949.831 507.9 945.924 511.86 941.981C521.599 932.285 532.028 923.256 541.474 913.266C541.802 907.201 542.667 863.951 541.134 861.772L540.44 861.743C533.854 862.548 527.175 863.424 520.549 863.682C513.314 863.964 506.109 863.655 498.892 864.389C505.926 870.072 511.491 872.851 512.692 883.188C513.355 888.894 512.149 893.622 508.747 898.282C504.175 904.544 496.097 903.73 491.531 907.798C485.064 913.559 478.605 920.547 472.475 926.79C475.186 929.177 478.029 931.611 480.684 934.042ZM648.856 782.926C647.107 787.951 643.3 794.015 640.41 798.46C626.773 819.648 607.475 836.595 584.701 847.38C574.953 852.115 564.835 855.649 554.555 858.997C554.536 864.236 553.612 915.711 554.05 917.092C551.912 922.593 525.6 945.664 519.311 952.224C524.739 952.504 530.181 952.381 535.592 951.856C561.32 928.39 584.848 903.391 609.975 879.312C612.183 877.196 614.682 875.316 617.163 873.532C613.336 869.544 610.84 865.534 611.18 859.886C611.553 853.858 613.888 846.511 618.579 842.49C633.328 829.849 657.063 841.647 654.321 861.78C652.139 877.803 640.524 879.985 626.736 880.049C603.226 902.905 576.983 927.011 554.827 951.056C570.555 949.499 586.426 946.509 601.564 941.652C604.733 940.636 608.818 936.333 611.397 935.641C612.188 935.053 616.599 930.527 617.627 929.505L631.13 916.097C636.683 910.58 642.267 905.093 647.881 899.638C650.64 896.95 655.19 892.774 657.564 889.934C658.581 888.064 667.973 877.781 670.402 874.658C671.487 864.077 670.675 859.441 670.661 849.336C670.641 835.32 669.976 819.897 670.46 805.994C670.663 804.824 670.405 805.318 671.202 804.496C685.458 804.542 699.755 805.722 714.018 806.343C720.843 806.64 728.41 807.909 735.237 808.014C735.365 806.911 734.853 806.696 734.005 805.479C724.552 796.899 714.193 790.288 703.873 780.167C699.605 788.001 694.451 795.463 685.002 797.432C673.59 799.81 662.772 789.643 661.28 778.776C660.925 776.198 661.052 770.774 662.615 768.639C665.875 762.008 666.823 760.421 673.102 756.434L672.847 755.257C676.83 753.215 685.501 752.311 688.753 754.001C699.911 759.8 725.659 781.082 733.585 790.558C737.449 794.036 743.67 798.983 745.737 803.431C745.383 805.697 744.735 807.801 745.581 809.807C747.925 811.682 750.585 809.917 753.085 808.748C755.055 807.415 763.153 799.477 765.124 797.609C777.358 786.013 788.282 773.616 801.366 762.91C802.673 758.064 803.66 750.461 804.314 745.465C803.025 742.501 804.651 725.137 804.542 720.039C802.294 721.99 800.069 723.987 797.812 725.922C779.009 742.041 762.761 760.163 744.397 776.83C737.337 771.115 730.819 764.747 724.098 758.626L689.296 727.119C681.016 726.193 672.119 726.435 663.773 726.569C661.774 743.482 659.384 758.59 652.846 774.536C652.056 776.461 650.025 781.331 648.856 782.926ZM691.107 664.013C683.562 663.818 676.019 663.542 668.479 663.186C661.951 662.847 654.996 662.164 648.504 662.809C658.77 678.308 663.286 697.08 663.464 715.537L671.005 715.845C679.027 715.701 687.051 715.615 695.076 715.59C698.252 717.749 706.631 726.087 709.779 729.121C719.116 738.124 736.351 751.689 744.093 761.579C765.303 743.04 783.172 721.076 804.32 703.119C803.838 690.347 796.719 655.362 790.697 644.904C786.538 648.232 781.638 653.866 777.747 657.739C768.773 666.675 759.765 675.925 749.613 683.534C752.125 688.755 753.274 693.18 752.178 699.049C751.117 704.845 747.778 709.975 742.908 713.292C733.571 719.578 718.662 716.586 714.361 707.094C704.967 686.359 719.165 670.846 740.068 676.783C746.658 672.582 754.026 664.27 759.892 658.825C768.983 650.386 776.274 641.045 786.415 633.622C782.457 626.752 778.397 619.94 774.237 613.19C771.406 615.434 769.177 617.547 766.612 620.096C751.213 635.405 734.914 649.713 719.286 664.791C709.717 664.513 700.814 664.439 691.107 664.013ZM747.607 826.302C745.294 823.756 742.564 820.836 739.241 819.824C734.113 821.039 736.918 827.753 734.165 830.545C734.136 843.83 734.215 857.307 734.002 870.574L735.173 871.833C739.804 873.268 744.676 864.653 749.367 862.559C753.07 859.598 766.368 842.28 768.707 837.944C769.673 834.625 775.79 825.095 777.766 821.142C783.554 809.564 791.789 794.756 795.719 782.539C792.598 784.914 789.398 788.274 786.403 790.887C772.725 802.825 762.474 815.683 747.607 826.302ZM622.124 588.484C627.831 578.771 666.022 542.451 675.94 535.253C666.077 531.055 655.932 527.552 645.579 524.772C640.421 529.674 618.382 552.055 613.508 553.197C609.415 557.103 594.927 569.895 592.434 573.627C592.352 574.168 592.269 574.709 592.186 575.249C589.675 578.382 581.152 587.565 578.211 589.793C582.848 594.795 597.772 600.055 601.773 608.391C607.376 602.486 617.324 594.366 622.124 588.484ZM635.773 923.843C635.229 924.357 633.746 925.688 633.359 926.198C632.996 929.531 626.687 932.812 625.527 937.604C629.568 936.376 636.831 934.399 640.376 932.739C641.972 931.139 656.226 925.482 659.583 924.021C672.953 918.203 684.519 910.297 697.058 903.706C694.941 901.442 690.773 897.285 689.55 894.675C687.028 892.459 684.041 890.107 681.424 887.946C679.571 887.432 678.395 887.051 676.605 886.349C670.885 891.714 639.443 923.175 635.773 923.843ZM639.815 511.171C643.732 508.684 647.046 505.065 650.894 502.914L651.839 503.197C653.374 502.229 662.789 492.897 664.538 491.158C670.111 485.614 676.714 479.942 682.112 474.368L681.854 473.716C682.436 470.479 691.683 462.708 694.492 460.551C695.773 459.567 695.694 459.831 696.923 460.109C699.434 458.375 714.067 443.525 717.067 440.547C709.736 437.412 694.877 438.749 686.456 438.808C673.587 438.897 659.43 437.195 646.932 440.317C644.676 440.972 631.394 454.79 628.908 457.237C618.577 467.376 608.148 477.414 597.621 487.349C595.147 489.669 583.624 499.979 582.389 501.788L582.214 503.035C584.934 504.101 598.793 505.449 602.409 505.746C615.43 506.449 627.225 506.983 639.815 511.171ZM629.955 848.023C615.679 856.057 621.991 870.055 635.99 869.204C641.381 866.186 642.944 864.725 644.736 858.524C642.448 850.467 638.629 847.645 629.955 848.023ZM705.627 577.418C702.881 576.453 702.028 576.153 699.118 575.962C689.209 582.429 688.906 592.864 701.708 594.056C710.456 590.878 711.879 584.197 705.627 577.418ZM755.674 588.516C754.111 587.341 752.913 586.013 751.552 584.618C739.408 573.476 725.574 561.887 711.565 553.213C704.073 548.575 695.472 544.647 687.868 540.02C671.387 554.367 658.774 567.122 643.201 582.378L610.274 614.016C614.967 618.462 618.928 622.252 623.318 626.934C625.773 629.553 633.805 639.327 635.837 640.901C643.488 634.176 648.828 627.504 655.85 620.533C664.635 611.811 673.155 603.996 681.557 594.739C671.145 578.021 690.295 559.228 707.587 564.93C719.618 568.897 725.006 580.767 720.441 592.423C718.359 597.884 714.156 602.271 708.789 604.586C702.371 607.335 696.639 606.532 690.404 603.942C675.879 618.176 658.653 634.931 644.988 649.837C655.57 651.208 670.17 651.486 680.964 651.85C692.25 652.23 704.172 653.277 715.278 653.611C724.216 644.502 733.001 635.614 742.264 626.83C751.486 618.085 758.615 609.176 769.661 602.615L762.84 594.878C760.34 593.492 757.78 590.626 755.674 588.516ZM680.699 765.723C677.403 766.114 674.577 768.257 673.311 771.324C672.044 774.392 672.536 777.904 674.596 780.506C676.656 783.108 679.961 784.392 683.238 783.863C688.158 783.069 691.541 778.486 690.85 773.55C690.159 768.614 685.648 765.136 680.699 765.723ZM681.667 873.961C685.664 877.172 705.414 894.342 707.514 897.729L708.061 898.168C709.727 897.732 717.169 891.36 719.039 889.842C720.546 887.415 721.777 886.771 724 885.009C725.64 874.888 724.938 861.144 724.757 850.617C724.609 841.992 725.199 828.066 724.218 819.77C716.279 818.403 691.364 816.64 682.57 816.735C681.819 833.385 680.728 857.29 681.667 873.961ZM376.804 845.842C378.975 850.166 379.217 851.353 383.426 853.835C387.705 853.412 393.163 850.373 393.66 845.76C392.06 842.578 390.861 839.976 387.156 838.706C385.38 838.081 383.425 838.214 381.75 839.075C378.923 840.531 377.755 842.995 376.804 845.842ZM555.584 513.959C545.192 520.52 548.94 531.784 559.904 532.113C568.398 524.587 567.956 513.909 555.584 513.959ZM489.287 875.978C477.74 882.158 482.208 892.3 493.015 893.879C503.241 886.848 500.337 876.034 489.287 875.978ZM733.92 703.661C744.371 696.426 741.595 686.808 728.893 686.97C720.33 694.959 722.915 707.267 733.92 703.661Z"/><path fill="#01FA98" fill-opacity="0.98823529" d="M459.373 856.641C469.385 860.175 475.212 861.231 485.751 862.928C477.598 868.02 468.863 875.179 469.851 886.011C470.64 894.661 475.293 895.368 478.442 901.664C474.515 906.942 470.453 911.348 466.102 916.254C465.485 916.678 464.473 917.463 463.804 916.803C455.346 908.466 447.544 899.517 438.649 891.585C437.129 890.229 431.474 885.084 431.115 883.494C440.598 874.759 449.896 865.065 459.373 856.641Z"/><path fill="#01D26A" d="M458.578 853.828C482.347 861.071 501.117 863.482 526.015 861.608C532.165 861.146 538.014 859.948 544.009 859.28C544.045 876.49 544.401 895.063 543.869 912.169C541.654 915.561 537.578 919.037 534.644 921.94C523.284 933.18 511.176 943.979 500.412 955.791C488.063 946.369 480.491 935.3 470.111 926.336C476.061 919.316 484.965 910.926 491.595 904.355C521.101 903.279 513.396 862.763 488.586 865.417C483.339 865.956 478.549 868.641 475.351 872.835C467.381 883.431 472.76 894.848 482.432 901.802C477.15 906.708 471.983 911.735 466.935 916.882L466.102 916.254C470.453 911.348 474.515 906.942 478.442 901.664C475.293 895.368 470.64 894.661 469.851 886.011C468.863 875.179 477.598 868.02 485.751 862.928C475.212 861.231 469.385 860.175 459.373 856.641C449.896 865.065 440.598 874.759 431.115 883.494L429.997 881.883C438.323 872.49 449.641 863.193 458.578 853.828ZM498.892 864.389C505.926 870.072 511.491 872.851 512.692 883.188C513.355 888.894 512.149 893.622 508.747 898.282C504.175 904.544 496.097 903.73 491.531 907.798C485.064 913.559 478.605 920.547 472.475 926.79C475.186 929.177 478.029 931.611 480.684 934.042C485.929 939.074 495.619 948.02 499.64 953.438C503.912 949.831 507.9 945.924 511.86 941.981C521.599 932.285 532.028 923.256 541.474 913.266C541.802 907.201 542.667 863.951 541.134 861.772L540.44 861.743C533.854 862.548 527.175 863.424 520.549 863.682C513.314 863.964 506.109 863.655 498.892 864.389Z"/><path fill="#00F7C4" fill-opacity="0.98823529" d="M540.44 861.743L541.134 861.772C542.667 863.951 541.802 907.201 541.474 913.266C532.028 923.256 521.599 932.285 511.86 941.981C507.9 945.924 503.912 949.831 499.64 953.438C495.619 948.02 485.929 939.074 480.684 934.042C478.029 931.611 475.186 929.177 472.475 926.79C478.605 920.547 485.064 913.559 491.531 907.798C496.097 903.73 504.175 904.544 508.747 898.282C512.149 893.622 513.355 888.894 512.692 883.188C511.491 872.851 505.926 870.072 498.892 864.389C506.109 863.655 513.314 863.964 520.549 863.682C527.175 863.424 533.854 862.548 540.44 861.743Z"/><path fill="#01C887" d="M522.188 850.484C524.312 849.708 536.998 848.305 540.861 847.477C565.876 842.113 588.952 832.136 608.456 815.154C633.776 793.455 649.355 762.523 651.717 729.261C657.586 640.742 562.504 586.113 489.694 564.275C487.876 563.739 483.883 560.656 483.522 558.729C481.428 547.537 502.851 542.564 510.214 539.362C512.847 538.217 515.778 538.424 518.347 538.975C510.754 540.424 506.288 542.665 499.444 545.372C489.744 549.209 474.615 557.198 493.15 563.317C498.58 565.109 504.789 567.432 510.179 569.498C531.483 577.664 552.976 586.833 572.008 599.459C573.555 600.488 574.372 600.974 576.125 600.803C607.902 619.611 641.979 657.483 650.392 693.506C657.355 723.32 651.99 759.754 636.099 785.992C616.745 817.946 586.708 838.547 550.815 847.652C544.201 849.33 530.18 852.129 523.722 851.855C514.218 852.949 498.107 852.689 488.731 850.959C492.541 849.37 499.501 852.256 503.304 851.23L503.117 850.516C510.296 851.011 515.072 850.727 522.188 850.484Z"/><path fill="#00C79F" d="M810.349 763.445C810.714 768.916 808.261 778.114 806.736 783.396C797.453 815.552 779.729 843.496 757.723 868.485C714.805 917.22 654.45 944.056 591.708 956.554C578.265 959.232 564.92 962.005 551.236 962.914L551.053 961.253C554.627 960.56 558.312 960.103 561.927 959.712C660.215 949.089 758.212 897.213 798.101 802.685C803.57 789.723 807.107 777.174 810.349 763.445Z"/><path fill="#01D26A" d="M367.172 855.04C365.811 850.764 365.436 848.657 365.495 843.976C365.682 829.047 382.953 820.44 395.848 827.708C400.446 830.251 403.801 834.568 405.13 839.651C406.786 846.175 405.156 851.252 402.302 856.969C405.831 860.539 420.654 875.263 424.286 876.281C425.434 877.561 428.791 881.682 429.997 881.883L431.115 883.494C431.474 885.084 437.129 890.229 438.649 891.585C447.544 899.517 455.346 908.466 463.804 916.803C464.473 917.463 465.485 916.678 466.102 916.254L466.935 916.882L463.881 920.229C442.583 898.706 421.054 878.154 399.718 856.857C405.972 849.17 405.968 839.754 398.619 832.77C394.746 829.071 389.523 827.127 384.174 827.394C369.531 828.141 362.435 843.355 369.818 855.801C371.132 858.017 373.398 859.754 375.401 861.386L373.879 862.887C371.646 867.15 368.824 870.031 365.274 873.224C363.803 871.429 361.596 869.002 360.655 866.983L361.148 865.918C360.435 860.574 363.589 858.445 367.172 855.04Z"/><path fill="#FEFDFE" d="M361.148 865.918C363.492 863.092 365.934 860.348 368.468 857.691C370.212 859.42 372.099 861.18 373.879 862.887C371.646 867.15 368.824 870.031 365.274 873.224C363.803 871.429 361.596 869.002 360.655 866.983L361.148 865.918Z"/><path fill="#01D26A" d="M772.022 349.922C773.455 351.464 773.423 351.871 773.234 354.101C768.464 410.444 725.793 447.786 686.79 483.291C676.636 492.535 667.733 502.189 657.917 511.718C656.748 512.869 655.245 513.804 655.541 515.303L656.536 515.736L656.075 517.155L650.813 515.571L692.501 475.617C726.916 442.669 762.248 411.955 770.086 362.503C770.751 358.305 771.417 354.13 772.022 349.922Z"/><path fill="#01D26A" d="M373.789 776.516C389.439 811.13 410.078 830.649 443.96 847.349C443.549 848.375 443.785 848.229 443.056 848.867C441.377 848.334 439.719 847.737 438.086 847.076C417.648 838.7 394.287 816.697 382.094 798.038C378.888 793.133 376.064 786.315 373.785 780.834C366.549 787.718 350.255 803.999 344.337 811.327C346.017 817.031 349.092 825.554 347.939 831.219C347.152 828.355 341.109 810.758 341.453 809.349L373.789 776.516Z"/><path fill="#00C79F" d="M744.15 561.403C772.853 587.288 796.396 617.437 807.094 655.061C809.156 662.314 812.097 673.562 812.039 681.008C809.822 672.686 808.678 665.509 805.912 656.977C792.666 616.12 773.948 590.352 741.999 562.696L744.15 561.403Z"/><path fill="#01D26A" d="M518.347 538.975C521.647 539.46 523.057 542.498 522.348 545.528C520.95 551.5 507.553 552.957 505.687 556.223C507.36 558.376 522.155 562.495 526.134 563.953C525.944 564.96 525.771 564.746 524.754 565.753C515.055 561.753 507.456 558.837 497.496 555.657C504.708 553.315 513.063 550.995 519.05 546.419C519.976 544.551 519.709 545.553 519.559 543.236C516.537 538.555 508.769 542.255 504.731 544.08C499.04 546.651 487.578 550.098 485.491 556.461C485.62 557.602 486.438 559.434 487.564 559.874C517.572 571.59 549.318 582.303 576.125 600.803C574.372 600.974 573.555 600.488 572.008 599.459C552.976 586.833 531.483 577.664 510.179 569.498C504.789 567.432 498.58 565.109 493.15 563.317C474.615 557.198 489.744 549.209 499.444 545.372C506.288 542.665 510.754 540.424 518.347 538.975Z"/><path fill="#01D26A" d="M405.557 808.199C409.996 809.619 424.809 822.231 429.773 825.431C433.351 827.737 437.664 829.919 441.183 832.01C455.683 840.626 468.7 845.446 485.311 848.063C490.584 848.894 498.463 849.6 503.117 850.516L503.304 851.23C499.501 852.256 492.541 849.37 488.731 850.959C461.697 849.48 424.071 828.439 405.557 808.199Z"/><path fill="#01D26A" d="M564.656 501.436C567.58 498.614 576.026 489.641 579.533 489.637C574.956 494.299 570.394 498.746 566.295 503.836C559.277 502.696 553.391 501.751 547.077 506.273C542.369 509.673 539.262 514.856 538.483 520.611C537.862 525.459 539.216 530.353 542.239 534.194C550.411 544.656 566.604 544.019 574.243 533.023L575.31 532.936L575.907 533.905C572.85 539.844 567.24 543.426 560.613 543.958C554.452 544.504 548.346 542.421 543.803 538.222C533.581 528.948 534.073 515.022 543.557 505.793C549.583 499.929 557.092 501.378 564.656 501.436Z"/><path fill="#01D26A" d="M656.536 515.736C688.902 523.918 718.906 539.557 744.15 561.403L741.999 562.696C713.669 539.281 690.743 528.219 656.075 517.155L656.536 515.736Z"/><path fill="#01D26A" d="M394.554 864.128C404.14 871.474 417.191 884.927 425.849 893.563L476.713 945.315C472.123 945.031 457.554 927.837 453.672 923.935L424.205 894.293C418.419 888.565 397.579 870.295 394.554 864.128Z"/><path fill="#01D26A" d="M643.487 429.442C643.621 428.792 643.496 429.194 644.045 428.31C644.466 428.217 645.585 427.951 646.211 427.933C673.104 427.161 700.3 427.251 727.199 427.776C727.495 428.018 727.791 428.259 728.087 428.5C725.315 430.407 698.25 429.605 692.804 429.56C676.412 429.423 659.88 429.441 643.487 429.442Z"/><path fill="#01D26A" d="M366.706 750.975C367.899 756.596 368.901 761.778 371.054 767.154C363.282 775.088 347.402 793.218 339.662 799.211L339.011 796.892C338.483 794.55 338.695 793.629 337.822 790.977C338.276 788.892 337.745 786.94 337.395 784.789C340.5 787.79 340.122 791.145 340.473 795.539C349.76 786.6 358.161 776.78 368.295 767.171C367.454 763.696 364.148 754.66 364.978 751.822L366.706 750.975Z"/><path fill="#01D26A" d="M520.133 963.049C530.45 962.649 540.759 962.051 551.053 961.253L551.236 962.914C541.349 963.614 530.4 964.416 520.494 964.56L508.615 965.188C510.361 966.392 514.242 968.94 515.62 970.226C520.219 973.253 535.396 982.748 537.422 986.887C533.442 984.631 519.208 975.384 515.883 972.943C510.568 969.715 505.419 966.222 500.454 962.478C507.088 962.63 513.511 963.208 520.133 963.049Z"/><path fill="#01D26A" d="M373.803 739.978L374.684 739.87C378.254 746.811 379.435 760.995 382.94 768.909C387.814 779.915 393.739 789.44 399.749 799.83C400.03 800.317 399.971 801.333 399.98 801.883C385.037 785.097 375.852 762.244 373.803 739.978Z"/><path fill="#01D26A" d="M575.857 518.319C575.295 516.646 575.239 516.686 575.302 514.83C583.648 511.854 624.979 517.626 635.451 520.314L635.819 520.902C632.22 521.71 624.403 519.691 620.369 519.27C611.546 518.348 585.906 515.383 578.29 516.85C577.246 518.261 577.611 518.246 577.547 520.414L577.22 520.611C576.707 519.809 576.327 519.144 575.857 518.319Z"/><path fill="#01D26A" d="M533.871 569.265C538.431 564.456 563.353 583.501 570.058 583.89C569.029 584.962 568.871 585.09 567.657 585.951C566.177 585.662 553.835 578.755 551.179 577.426C545.457 574.606 539.687 571.885 533.871 569.265Z"/><path fill="#01D26A" d="M443.96 847.349C446.051 848.338 448.155 849.306 450.205 850.377C444.748 855.961 439.088 861.343 433.237 866.513C434.829 861.185 444.452 854.929 445.528 850.561C444.775 849.239 444.798 849.597 443.056 848.867C443.785 848.229 443.549 848.375 443.96 847.349Z"/><path fill="#01D26A" d="M575.857 518.319C576.327 519.144 576.707 519.809 577.22 520.611L577.547 520.414C578.402 523.79 577.615 530.9 575.907 533.905L575.31 532.936L574.243 533.023C576.798 527.25 576.516 524.254 575.857 518.319Z"/><path fill="#01D26A" d="M377.475 862.784C384.272 864.535 385.797 864.043 392.64 863.436C388.273 866.713 381.097 867.645 377.475 862.784Z"/><path fill="#00F7C4" fill-opacity="0.98823529" d="M804.542 720.039C804.651 725.137 803.025 742.501 804.314 745.465C803.66 750.461 802.673 758.064 801.366 762.91C788.282 773.616 777.358 786.013 765.124 797.609C763.153 799.477 755.055 807.415 753.085 808.748C750.585 809.917 747.925 811.682 745.581 809.807C744.735 807.801 745.383 805.697 745.737 803.431C743.67 798.983 737.449 794.036 733.585 790.558C725.659 781.082 699.911 759.8 688.753 754.001C685.501 752.311 676.83 753.215 672.847 755.257L673.102 756.434C666.823 760.421 665.875 762.008 662.615 768.639C661.052 770.774 660.925 776.198 661.28 778.776C662.772 789.643 673.59 799.81 685.002 797.432C694.451 795.463 699.605 788.001 703.873 780.167C714.193 790.288 724.552 796.899 734.005 805.479C734.853 806.696 735.365 806.911 735.237 808.014C728.41 807.909 720.843 806.64 714.018 806.343C699.755 805.722 685.458 804.542 671.202 804.496C670.405 805.318 670.663 804.824 670.46 805.994C669.976 819.897 670.641 835.32 670.661 849.336C670.675 859.441 671.487 864.077 670.402 874.658C667.973 877.781 658.581 888.064 657.564 889.934C655.19 892.774 650.64 896.95 647.881 899.638C642.267 905.093 636.683 910.58 631.13 916.097L617.627 929.505C616.599 930.527 612.188 935.053 611.397 935.641C608.818 936.333 604.733 940.636 601.564 941.652C586.426 946.509 570.555 949.499 554.827 951.056C576.983 927.011 603.226 902.905 626.736 880.049C640.524 879.985 652.139 877.803 654.321 861.78C657.063 841.647 633.328 829.849 618.579 842.49C613.888 846.511 611.553 853.858 611.18 859.886C610.84 865.534 613.336 869.544 617.163 873.532C614.682 875.316 612.183 877.196 609.975 879.312C584.848 903.391 561.32 928.39 535.592 951.856C530.181 952.381 524.739 952.504 519.311 952.224C525.6 945.664 551.912 922.593 554.05 917.092C553.612 915.711 554.536 864.236 554.555 858.997C564.835 855.649 574.953 852.115 584.701 847.38C607.475 836.595 626.773 819.648 640.41 798.46C643.3 794.015 647.107 787.951 648.856 782.926C650.025 781.331 652.056 776.461 652.846 774.536C659.384 758.59 661.774 743.482 663.773 726.569C672.119 726.435 681.016 726.193 689.296 727.119L724.098 758.626C730.819 764.747 737.337 771.115 744.397 776.83C762.761 760.163 779.009 742.041 797.812 725.922C800.069 723.987 802.294 721.99 804.542 720.039Z"/><path fill="#01C887" d="M774.235 609.66C779.683 617.259 784.406 625.353 788.341 633.835C771.948 648.209 756.768 664.461 740.692 678.616C734.798 676.343 730.132 675.164 723.904 678.003C719.075 680.217 715.366 684.317 713.647 689.345C711.908 694.465 712.294 700.068 714.718 704.902C725.024 725.586 763.839 711.613 746.822 683.281C755.738 676.638 765.186 667.15 773.15 659.387C778.815 653.866 786.317 646.821 791.26 640.841C793.679 646.309 795.847 652.158 797.721 657.616C800.424 665.488 807.725 698.286 805.702 704.487L804.864 705.314C795.46 713.294 785.244 723.94 776.23 732.689C766.905 741.74 752.565 754.08 744.599 764.129C733.781 753.774 722.896 743.489 711.945 733.274C706.723 728.452 699.681 721.773 694.244 717.474L669.654 716.912L661.918 716.966C660.384 692.814 656.645 680.96 645.338 660.151C656.974 659.955 678.408 661.65 690.845 662.259C698.977 662.615 710.157 662.969 718.156 663.963L774.235 609.66ZM648.504 662.809C658.77 678.308 663.286 697.08 663.464 715.537L671.005 715.845C679.027 715.701 687.051 715.615 695.076 715.59C698.252 717.749 706.631 726.087 709.779 729.121C719.116 738.124 736.351 751.689 744.093 761.579C765.303 743.04 783.172 721.076 804.32 703.119C803.838 690.347 796.719 655.362 790.697 644.904C786.538 648.232 781.638 653.866 777.747 657.739C768.773 666.675 759.765 675.925 749.613 683.534C752.125 688.755 753.274 693.18 752.178 699.049C751.117 704.845 747.778 709.975 742.908 713.292C733.571 719.578 718.662 716.586 714.361 707.094C704.967 686.359 719.165 670.846 740.068 676.783C746.658 672.582 754.026 664.27 759.892 658.825C768.983 650.386 776.274 641.045 786.415 633.622C782.457 626.752 778.397 619.94 774.237 613.19C771.406 615.434 769.177 617.547 766.612 620.096C751.213 635.405 734.914 649.713 719.286 664.791C709.717 664.513 700.814 664.439 691.107 664.013C683.562 663.818 676.019 663.542 668.479 663.186C661.951 662.847 654.996 662.164 648.504 662.809Z"/><path fill="#00F7C4" fill-opacity="0.98823529" d="M719.286 664.791C734.914 649.713 751.213 635.405 766.612 620.096C769.177 617.547 771.406 615.434 774.237 613.19C778.397 619.94 782.457 626.752 786.415 633.622C776.274 641.045 768.983 650.386 759.892 658.825C754.026 664.27 746.658 672.582 740.068 676.783C719.165 670.846 704.967 686.359 714.361 707.094C718.662 716.586 733.571 719.578 742.908 713.292C747.778 709.975 751.117 704.845 752.178 699.049C753.274 693.18 752.125 688.755 749.613 683.534C759.765 675.925 768.773 666.675 777.747 657.739C781.638 653.866 786.538 648.232 790.697 644.904C796.719 655.362 803.838 690.347 804.32 703.119C783.172 721.076 765.303 743.04 744.093 761.579C736.351 751.689 719.116 738.124 709.779 729.121C706.631 726.087 698.252 717.749 695.076 715.59C687.051 715.615 679.027 715.701 671.005 715.845L663.464 715.537C663.286 697.08 658.77 678.308 648.504 662.809C654.996 662.164 661.951 662.847 668.479 663.186C676.019 663.542 683.562 663.818 691.107 664.013C700.814 664.439 709.717 664.513 719.286 664.791Z"/><path fill="#01C887" d="M804.32 703.119L804.864 705.314C795.46 713.294 785.244 723.94 776.23 732.689C766.905 741.74 752.565 754.08 744.599 764.129C733.781 753.774 722.896 743.489 711.945 733.274C706.723 728.452 699.681 721.773 694.244 717.474L669.654 716.912C668.337 716.7 668.125 716.751 666.954 716.164L671.005 715.845C679.027 715.701 687.051 715.615 695.076 715.59C698.252 717.749 706.631 726.087 709.779 729.121C719.116 738.124 736.351 751.689 744.093 761.579C765.303 743.04 783.172 721.076 804.32 703.119Z"/><path fill="#00F7C4" fill-opacity="0.98823529" d="M687.868 540.02C695.472 544.647 704.073 548.575 711.565 553.213C725.574 561.887 739.408 573.476 751.552 584.618C752.913 586.013 754.111 587.341 755.674 588.516C757.78 590.626 760.34 593.492 762.84 594.878L769.661 602.615C758.615 609.176 751.486 618.085 742.264 626.83C733.001 635.614 724.216 644.502 715.278 653.611C704.172 653.277 692.25 652.23 680.964 651.85C670.17 651.486 655.57 651.208 644.988 649.837C658.653 634.931 675.879 618.176 690.404 603.942C696.639 606.532 702.371 607.335 708.789 604.586C714.156 602.271 718.359 597.884 720.441 592.423C725.006 580.767 719.618 568.897 707.587 564.93C690.295 559.228 671.145 578.021 681.557 594.739C673.155 603.996 664.635 611.811 655.85 620.533C648.828 627.504 643.488 634.176 635.837 640.901C633.805 639.327 625.773 629.553 623.318 626.934C618.928 622.252 614.967 618.462 610.274 614.016L643.201 582.378C658.774 567.122 671.387 554.367 687.868 540.02Z"/><path fill="#01FA98" fill-opacity="0.98823529" d="M602.409 505.746C598.793 505.449 584.934 504.101 582.214 503.035L582.389 501.788C583.624 499.979 595.147 489.669 597.621 487.349C608.148 477.414 618.577 467.376 628.908 457.237C631.394 454.79 644.676 440.972 646.932 440.317C659.43 437.195 673.587 438.897 686.456 438.808C694.877 438.749 709.736 437.412 717.067 440.547C714.067 443.525 699.434 458.375 696.923 460.109C695.694 459.831 695.773 459.567 694.492 460.551C691.683 462.708 682.436 470.479 681.854 473.716L682.112 474.368C676.714 479.942 670.111 485.614 664.538 491.158C662.789 492.897 653.374 502.229 651.839 503.197L650.894 502.914C647.046 505.065 643.732 508.684 639.815 511.171C627.225 506.983 615.43 506.449 602.409 505.746Z"/><path fill="#00F7C4" fill-opacity="0.98823529" d="M682.57 816.735C691.364 816.64 716.279 818.403 724.218 819.77C725.199 828.066 724.609 841.992 724.757 850.617C724.938 861.144 725.64 874.888 724 885.009C721.777 886.771 720.546 887.415 719.039 889.842C717.169 891.36 709.727 897.732 708.061 898.168L707.514 897.729C705.414 894.342 685.664 877.172 681.667 873.961C680.728 857.29 681.819 833.385 682.57 816.735Z"/><path fill="#01FA98" fill-opacity="0.98823529" d="M645.579 524.772C655.932 527.552 666.077 531.055 675.94 535.253C666.022 542.451 627.831 578.771 622.124 588.484C617.324 594.366 607.376 602.486 601.773 608.391C597.772 600.055 582.848 594.795 578.211 589.793C581.152 587.565 589.675 578.382 592.186 575.249C592.269 574.709 592.352 574.168 592.434 573.627C594.927 569.895 609.415 557.103 613.508 553.197C618.382 552.055 640.421 529.674 645.579 524.772Z"/><path fill="#FEFDFE" d="M673.102 756.434L672.847 755.257C676.83 753.215 685.501 752.311 688.753 754.001C699.911 759.8 725.659 781.082 733.585 790.558C737.449 794.036 743.67 798.983 745.737 803.431C745.383 805.697 744.735 807.801 745.581 809.807C747.925 811.682 750.585 809.917 753.085 808.748C751.831 810.07 750.208 811.562 748.876 812.855C741.436 809.161 716.472 809.214 707.067 808.329C696.417 807.327 682.515 805.875 672.032 806.088L670.46 805.994C670.663 804.824 670.405 805.318 671.202 804.496C685.458 804.542 699.755 805.722 714.018 806.343C720.843 806.64 728.41 807.909 735.237 808.014C735.365 806.911 734.853 806.696 734.005 805.479C724.552 796.899 714.193 790.288 703.873 780.167C699.605 788.001 694.451 795.463 685.002 797.432C673.59 799.81 662.772 789.643 661.28 778.776C660.925 776.198 661.052 770.774 662.615 768.639C665.875 762.008 666.823 760.421 673.102 756.434ZM683.238 783.863C688.158 783.069 691.541 778.486 690.85 773.55C690.159 768.614 685.648 765.136 680.699 765.723C677.403 766.114 674.577 768.257 673.311 771.324C672.044 774.392 672.536 777.904 674.596 780.506C676.656 783.108 679.961 784.392 683.238 783.863Z"/><path fill="#FEFDFE" d="M673.102 756.434L672.847 755.257C676.83 753.215 685.501 752.311 688.753 754.001C699.911 759.8 725.659 781.082 733.585 790.558C737.449 794.036 743.67 798.983 745.737 803.431C745.383 805.697 744.735 807.801 745.581 809.807C747.925 811.682 750.585 809.917 753.085 808.748C751.831 810.07 750.208 811.562 748.876 812.855C741.436 809.161 716.472 809.214 707.067 808.329C696.417 807.327 682.515 805.875 672.032 806.088L670.46 805.994C670.663 804.824 670.405 805.318 671.202 804.496C685.458 804.542 699.755 805.722 714.018 806.343C720.843 806.64 728.41 807.909 735.237 808.014C735.365 806.911 734.853 806.696 734.005 805.479L734.622 804.87C731.254 802.129 726.518 797.193 723.112 794.033C717.134 788.517 710.908 783.276 704.453 778.327C703.791 774.897 703.044 770.157 702.908 766.713L699.975 766.798C694.499 755.814 684.369 752.362 673.102 756.434Z"/><path fill="#00C79F" d="M673.102 756.434L672.847 755.257C676.83 753.215 685.501 752.311 688.753 754.001C699.911 759.8 725.659 781.082 733.585 790.558C737.449 794.036 743.67 798.983 745.737 803.431C745.383 805.697 744.735 807.801 745.581 809.807C747.925 811.682 750.585 809.917 753.085 808.748C751.831 810.07 750.208 811.562 748.876 812.855C741.436 809.161 716.472 809.214 707.067 808.329C696.417 807.327 682.515 805.875 672.032 806.088L670.46 805.994C670.663 804.824 670.405 805.318 671.202 804.496C685.458 804.542 699.755 805.722 714.018 806.343C720.843 806.64 728.41 807.909 735.237 808.014C735.365 806.911 734.853 806.696 734.005 805.479L734.622 804.87C736.509 806.137 738.412 807.377 740.332 808.593C741.89 806.547 742.907 804.774 744.209 802.583C740.391 798.61 736.834 795.276 732.805 791.544C726.784 786.602 708.401 769.335 702.908 766.713L699.975 766.798C694.499 755.814 684.369 752.362 673.102 756.434Z"/><defs><linearGradient id="gradient_0" gradientUnits="userSpaceOnUse" x1="684.32172" y1="805.16266" x2="710.34906" y2="774.51495"><stop offset="0" stop-color="#00C585"/><stop offset="1" stop-color="#01C5A7"/></linearGradient></defs><path fill="url(#gradient_0)" d="M699.975 766.798L702.908 766.713C703.044 770.157 703.791 774.897 704.453 778.327C710.908 783.276 717.134 788.517 723.112 794.033C726.518 797.193 731.254 802.129 734.622 804.87L734.005 805.479C724.552 796.899 714.193 790.288 703.873 780.167C699.605 788.001 694.451 795.463 685.002 797.432C673.59 799.81 662.772 789.643 661.28 778.776C660.925 776.198 661.052 770.774 662.615 768.639C662.358 771.23 662.136 774.602 662.459 777.213C663.215 782.968 666.295 788.162 670.982 791.587C683.142 800.4 700.394 791.58 701.085 776.88C701.276 772.816 700.804 770.761 699.975 766.798Z"/><path fill="#01C887" d="M679.705 763.762C685.741 762.644 691.561 766.56 692.799 772.572C694.038 778.584 690.239 784.482 684.253 785.84C680.272 786.744 676.115 785.425 673.383 782.393C670.651 779.361 669.771 775.089 671.083 771.224C672.394 767.359 675.692 764.505 679.705 763.762ZM683.238 783.863C688.158 783.069 691.541 778.486 690.85 773.55C690.159 768.614 685.648 765.136 680.699 765.723C677.403 766.114 674.577 768.257 673.311 771.324C672.044 774.392 672.536 777.904 674.596 780.506C676.656 783.108 679.961 784.392 683.238 783.863Z"/><path fill="#00F7C4" fill-opacity="0.98823529" d="M680.699 765.723C685.648 765.136 690.159 768.614 690.85 773.55C691.541 778.486 688.158 783.069 683.238 783.863C679.961 784.392 676.656 783.108 674.596 780.506C672.536 777.904 672.044 774.392 673.311 771.324C674.577 768.257 677.403 766.114 680.699 765.723Z"/><path fill="#00F7C4" fill-opacity="0.98823529" d="M747.607 826.302C762.474 815.683 772.725 802.825 786.403 790.887C789.398 788.274 792.598 784.914 795.719 782.539C791.789 794.756 783.554 809.564 777.766 821.142C775.79 825.095 769.673 834.625 768.707 837.944C766.368 842.28 753.07 859.598 749.367 862.559C744.676 864.653 739.804 873.268 735.173 871.833L734.002 870.574C734.215 857.307 734.136 843.83 734.165 830.545C736.918 827.753 734.113 821.039 739.241 819.824C742.564 820.836 745.294 823.756 747.607 826.302Z"/><path fill="#00F7C4" fill-opacity="0.98823529" d="M676.605 886.349C678.395 887.051 679.571 887.432 681.424 887.946C684.041 890.107 687.028 892.459 689.55 894.675C690.773 897.285 694.941 901.442 697.058 903.706C684.519 910.297 672.953 918.203 659.583 924.021C656.226 925.482 641.972 931.139 640.376 932.739C636.831 934.399 629.568 936.376 625.527 937.604C626.687 932.812 632.996 929.531 633.359 926.198C633.746 925.688 635.229 924.357 635.773 923.843C639.443 923.175 670.885 891.714 676.605 886.349Z"/><path fill="#00C79F" d="M744.215 774.298C755.792 763.713 767.185 752.928 778.388 741.947C786.837 733.527 797.338 722.259 806.405 714.865C806.689 724.557 805.605 735.853 804.314 745.465C803.025 742.501 804.651 725.137 804.542 720.039C802.294 721.99 800.069 723.987 797.812 725.922C779.009 742.041 762.761 760.163 744.397 776.83C737.337 771.115 730.819 764.747 724.098 758.626L689.296 727.119C681.016 726.193 672.119 726.435 663.773 726.569C661.774 743.482 659.384 758.59 652.846 774.536C652.056 776.461 650.025 781.331 648.856 782.926C647.107 787.951 643.3 794.015 640.41 798.46C626.773 819.648 607.475 836.595 584.701 847.38C574.953 852.115 564.835 855.649 554.555 858.997C554.536 864.236 553.612 915.711 554.05 917.092L552.067 917.274L552.067 857.31C596.05 842.343 622.924 826.678 646.352 784.662C655.074 765.887 660.291 745.676 661.744 725.025L690.025 725.061C695.611 729.259 702.599 736.076 707.954 740.901C720.204 751.855 732.292 762.989 744.215 774.298Z"/><path fill="#01C887" d="M617.163 873.532C613.336 869.544 610.84 865.534 611.18 859.886C611.553 853.858 613.888 846.511 618.579 842.49C633.328 829.849 657.063 841.647 654.321 861.78C652.139 877.803 640.524 879.985 626.736 880.049C603.226 902.905 576.983 927.011 554.827 951.056C570.555 949.499 586.426 946.509 601.564 941.652C604.733 940.636 608.818 936.333 611.397 935.641C609.106 938.301 606.797 940.946 604.47 943.575C590.95 948.174 563.525 951.022 548.787 953.299C552.641 949.745 557.105 945.387 560.668 941.573C580.895 919.925 606.498 899.757 625.471 877.278C632.909 878.524 639.936 878.669 646.096 873.578C655.206 866.048 654.174 852.072 646.568 843.991C643.279 840.464 638.669 838.467 633.847 838.479C619.494 838.386 607.148 853.78 615.2 867.138C616.779 869.758 618.369 871.211 620.561 873.271C599.171 891.201 579.773 912.051 559.413 931.19C551.179 938.93 545.299 946.105 536.128 953.364C527.847 954.226 521.009 954.48 512.726 954.594C521.094 946.61 529.521 938.688 538.006 930.828C542.537 926.594 547.992 921.816 552.067 917.274L554.05 917.092C551.912 922.593 525.6 945.664 519.311 952.224C524.739 952.504 530.181 952.381 535.592 951.856C561.32 928.39 584.848 903.391 609.975 879.312C612.183 877.196 614.682 875.316 617.163 873.532Z"/><path fill="#01C887" d="M681.557 594.739C671.145 578.021 690.295 559.228 707.587 564.93C719.618 568.897 725.006 580.767 720.441 592.423C718.359 597.884 714.156 602.271 708.789 604.586C702.371 607.335 696.639 606.532 690.404 603.942C675.879 618.176 658.653 634.931 644.988 649.837C655.57 651.208 670.17 651.486 680.964 651.85C692.25 652.23 704.172 653.277 715.278 653.611C724.216 644.502 733.001 635.614 742.264 626.83C751.486 618.085 758.615 609.176 769.661 602.615L769.688 603.246C768.27 604.995 758.99 613.571 756.583 615.899C743.271 628.769 729.421 642.912 715.52 655.025C690.684 653.445 664.352 654.204 640.243 651.6C649.875 640.438 661.498 630.236 671.675 619.515C677.566 613.308 683.925 607.765 689.4 601.124C696.256 603.875 703.266 606.033 710.352 602.165C719.182 597.345 723.023 584.749 717.89 575.906C715.151 571.27 710.632 567.958 705.386 566.743C699.802 565.452 693.932 566.481 689.12 569.597C685.019 572.229 682.172 576.423 681.24 581.206C680.427 585.312 680.845 590.331 683.216 593.874L681.557 594.739Z"/><path fill="#01C887" d="M686.913 537.335C693.925 539.904 700.465 544.005 706.891 547.69C730.095 560.997 745.537 574.786 762.84 594.878C760.34 593.492 757.78 590.626 755.674 588.516C754.111 587.341 752.913 586.013 751.552 584.618C739.408 573.476 725.574 561.887 711.565 553.213C704.073 548.575 695.472 544.647 687.868 540.02C671.387 554.367 658.774 567.122 643.201 582.378L610.274 614.016C614.967 618.462 618.928 622.252 623.318 626.934C625.773 629.553 633.805 639.327 635.837 640.901L637.307 642.603C636.489 643.553 636.564 643.508 635.424 644.024C633.609 642.679 626.028 633.197 623.636 630.612C618.124 624.654 613.207 620.047 607.185 614.599C612.974 607.312 624.385 597.613 631.535 590.632C649.751 572.615 668.212 554.848 686.913 537.335Z"/><path fill="#00C79F" d="M751.552 584.618C753.264 585.562 754.854 586.668 755.674 588.516C754.111 587.341 752.913 586.013 751.552 584.618Z"/><path fill="#01D26A" d="M646.092 437.432C651.193 437.169 657.651 437.661 662.969 437.563C681.531 437.219 701.637 438.287 720.044 437.003L717.067 440.547C709.736 437.412 694.877 438.749 686.456 438.808C673.587 438.897 659.43 437.195 646.932 440.317C644.676 440.972 631.394 454.79 628.908 457.237C618.577 467.376 608.148 477.414 597.621 487.349C595.147 489.669 583.624 499.979 582.389 501.788L582.214 503.035C584.934 504.101 598.793 505.449 602.409 505.746C615.43 506.449 627.225 506.983 639.815 511.171C643.732 508.684 647.046 505.065 650.894 502.914L651.839 503.197C648.504 506.749 644.988 510.127 641.305 513.317C626.149 509.954 616.23 508.712 600.744 507.013C592.272 506.73 583.803 506.371 575.337 505.936C585.561 494.152 599.07 482.288 610.565 471.492C622.414 460.362 634.174 448.286 646.092 437.432Z"/><path fill="#01C887" d="M698.475 574.22C704.436 573.033 710.23 576.907 711.411 582.869C712.592 588.831 708.712 594.621 702.749 595.797C699.563 596.424 696.263 595.612 693.732 593.578C691.201 591.544 689.699 588.495 689.627 585.249C689.509 579.913 693.24 575.262 698.475 574.22ZM701.708 594.056C710.456 590.878 711.879 584.197 705.627 577.418C702.881 576.453 702.028 576.153 699.118 575.962C689.209 582.429 688.906 592.864 701.708 594.056Z"/><path fill="#00F7C4" fill-opacity="0.98823529" d="M699.118 575.962C702.028 576.153 702.881 576.453 705.627 577.418C711.879 584.197 710.456 590.878 701.708 594.056C688.906 592.864 689.209 582.429 699.118 575.962Z"/><path fill="#01C887" d="M629.955 848.023C638.629 847.645 642.448 850.467 644.736 858.524C642.944 864.725 641.381 866.186 635.99 869.204C621.991 870.055 615.679 856.057 629.955 848.023ZM635.825 867.082C638.961 864.767 641.605 862.836 642.153 858.68C642.887 853.117 637.617 850.108 632.787 849.977C632.212 849.966 631.637 849.975 631.062 850.004C620.173 857.132 623.672 867.247 635.825 867.082Z"/><path fill="#00F7C4" fill-opacity="0.98823529" d="M631.062 850.004C631.637 849.975 632.212 849.966 632.787 849.977C637.617 850.108 642.887 853.117 642.153 858.68C641.605 862.836 638.961 864.767 635.825 867.082C623.672 867.247 620.173 857.132 631.062 850.004Z"/><path fill="#01C887" d="M729.632 685.231C735.26 684.133 740.739 687.716 741.987 693.313C743.236 698.909 739.8 704.482 734.239 705.88C730.507 706.819 726.56 705.657 723.931 702.846C721.302 700.036 720.406 696.02 721.591 692.359C722.776 688.697 725.855 685.968 729.632 685.231ZM733.92 703.661C744.371 696.426 741.595 686.808 728.893 686.97C720.33 694.959 722.915 707.267 733.92 703.661Z"/><path fill="#00F7C4" fill-opacity="0.98823529" d="M728.893 686.97C741.595 686.808 744.371 696.426 733.92 703.661C722.915 707.267 720.33 694.959 728.893 686.97Z"/><path fill="#01D26A" d="M489.503 874.208C493.299 873.617 497.117 875.13 499.478 878.159C501.839 881.189 502.373 885.261 500.873 888.797C499.373 892.333 496.074 894.779 492.254 895.187C486.542 895.796 481.386 891.737 480.639 886.04C479.892 880.344 483.827 875.092 489.503 874.208ZM493.015 893.879C503.241 886.848 500.337 876.034 489.287 875.978C477.74 882.158 482.208 892.3 493.015 893.879Z"/><path fill="#00F7C4" fill-opacity="0.98823529" d="M489.287 875.978C500.337 876.034 503.241 886.848 493.015 893.879C482.208 892.3 477.74 882.158 489.287 875.978Z"/><path fill="#01D26A" d="M555.783 511.966C561.47 510.978 566.898 514.735 567.975 520.406C569.052 526.077 565.38 531.564 559.727 532.729C555.99 533.5 552.128 532.197 549.623 529.32C547.117 526.443 546.356 522.439 547.633 518.843C548.909 515.248 552.024 512.619 555.783 511.966ZM559.904 532.113C568.398 524.587 567.956 513.909 555.584 513.959C545.192 520.52 548.94 531.784 559.904 532.113Z"/><path fill="#01FA98" fill-opacity="0.98823529" d="M555.584 513.959C567.956 513.909 568.398 524.587 559.904 532.113C548.94 531.784 545.192 520.52 555.584 513.959Z"/><path fill="#01D26A" d="M375.826 842.522C377.223 837.88 381.821 834.972 386.614 835.7C391.407 836.429 394.934 840.571 394.89 845.419C394.854 849.228 392.601 852.668 389.122 854.221C385.643 855.774 381.578 855.157 378.718 852.64C375.858 850.124 374.728 846.17 375.826 842.522ZM383.426 853.835C387.705 853.412 393.163 850.373 393.66 845.76C392.06 842.578 390.861 839.976 387.156 838.706C385.38 838.081 383.425 838.214 381.75 839.075C378.923 840.531 377.755 842.995 376.804 845.842C378.975 850.166 379.217 851.353 383.426 853.835Z"/><path fill="#00F7C4" fill-opacity="0.98823529" d="M376.804 845.842C377.755 842.995 378.923 840.531 381.75 839.075C383.425 838.214 385.38 838.081 387.156 838.706C390.861 839.976 392.06 842.578 393.66 845.76C393.163 850.373 387.705 853.412 383.426 853.835C379.217 851.353 378.975 850.166 376.804 845.842Z"/><path fill="#01C887" d="M375.826 842.522C376.598 847.153 377.295 853.728 383.426 853.835C387.705 853.412 393.163 850.373 393.66 845.76L394.89 845.419C394.854 849.228 392.601 852.668 389.122 854.221C385.643 855.774 381.578 855.157 378.718 852.64C375.858 850.124 374.728 846.17 375.826 842.522Z"/><path fill="#01D26A" d="M644.432 522.933C654.84 524.829 669.3 529.354 678.934 533.955C666.452 545.576 654.123 557.36 641.95 569.304C637.422 573.747 626.606 584.883 622.124 588.484C627.831 578.771 666.022 542.451 675.94 535.253C666.077 531.055 655.932 527.552 645.579 524.772C640.421 529.674 618.382 552.055 613.508 553.197C623.031 543.365 634.437 532.4 644.432 522.933Z"/><path fill="#00C79F" d="M748.824 823.26C753.215 819.797 757.429 816.114 761.448 812.225C765.69 808.189 795.689 778.187 797.763 777.285C798.924 778.621 794.818 788.041 794.121 789.788C787.979 805.182 779.25 825.061 768.707 837.944C769.673 834.625 775.79 825.095 777.766 821.142C783.554 809.564 791.789 794.756 795.719 782.539C792.598 784.914 789.398 788.274 786.403 790.887C772.725 802.825 762.474 815.683 747.607 826.302C745.294 823.756 742.564 820.836 739.241 819.824C734.113 821.039 736.918 827.753 734.165 830.545L733.994 817.911C741.241 818.44 742.91 818.982 748.824 823.26Z"/><path fill="#00C79F" d="M680.424 814.78C695.891 815.695 710.281 817.326 725.999 817.612C725.968 840.213 725.498 861.413 725.966 884.153C723.54 886.441 721.692 887.837 719.039 889.842C720.546 887.415 721.777 886.771 724 885.009C725.64 874.888 724.938 861.144 724.757 850.617C724.609 841.992 725.199 828.066 724.218 819.77C716.279 818.403 691.364 816.64 682.57 816.735C681.819 833.385 680.728 857.29 681.667 873.961C685.664 877.172 705.414 894.342 707.514 897.729C700.183 892.965 686.974 881.199 680.518 875.2C680.732 855.26 680.488 834.73 680.424 814.78Z"/><path fill="#01D26A" d="M683.216 593.874L683.743 596.044C681.456 599.362 673.425 606.718 670.331 609.905C659.745 620.81 647.668 631.613 637.307 642.603L635.837 640.901C643.488 634.176 648.828 627.504 655.85 620.533C664.635 611.811 673.155 603.996 681.557 594.739L683.216 593.874Z"/><path fill="#01C887" d="M670.46 805.994L672.032 806.088L672.001 876.285C667.847 880.332 661.986 886.279 657.564 889.934C658.581 888.064 667.973 877.781 670.402 874.658C671.487 864.077 670.675 859.441 670.661 849.336C670.641 835.32 669.976 819.897 670.46 805.994Z"/><path fill="#00C79F" d="M689.55 894.675L701.143 903.65C684.055 913.101 659.136 927.312 640.376 932.739C641.972 931.139 656.226 925.482 659.583 924.021C672.953 918.203 684.519 910.297 697.058 903.706C694.941 901.442 690.773 897.285 689.55 894.675Z"/><path fill="#00C79F" d="M676.306 883.326L681.424 887.946C679.571 887.432 678.395 887.051 676.605 886.349C670.885 891.714 639.443 923.175 635.773 923.843C649.122 910.176 662.634 896.669 676.306 883.326Z"/><path fill="#01D26A" d="M576.531 589.04C577.581 589.347 577.466 589.154 578.211 589.793C582.848 594.795 597.772 600.055 601.773 608.391C600.164 608.182 576.215 592.005 575.664 589.995L576.531 589.04Z"/><path fill="#01D26A" d="M592.434 573.627C592.352 574.168 592.269 574.709 592.186 575.249C589.675 578.382 581.152 587.565 578.211 589.793C577.466 589.154 577.581 589.347 576.531 589.04C578.713 585.879 589.25 576.417 592.434 573.627Z"/><path fill="#00C79F" d="M734.002 870.574L735.173 871.833C739.804 873.268 744.676 864.653 749.367 862.559C745.12 867.628 738.949 873.681 733.944 878.117L734.002 870.574Z"/><path fill="#01D26A" d="M682.112 474.368L681.854 473.716C682.436 470.479 691.683 462.708 694.492 460.551C695.773 459.567 695.694 459.831 696.923 460.109C692.237 465.116 687.293 469.876 682.112 474.368Z"/><path fill="#00C79F" d="M633.359 926.198C632.996 929.531 626.687 932.812 625.527 937.604L618.532 939.818C623.46 935.518 628.517 930.656 633.359 926.198Z"/><defs><linearGradient id="gradient_1" gradientUnits="userSpaceOnUse" x1="315.33545" y1="165.7531" x2="761.7558" y2="918.63025"><stop offset="0" stop-color="#00FF6F" stop-opacity="0.98823529"/><stop offset="1" stop-color="#00F6D4" stop-opacity="0.98823529"/></linearGradient></defs><path fill="url(#gradient_1)" d="M733.11 29.7963C736.868 34.0676 742.775 43.2297 746.126 48.2384C752.7 58.119 759.344 67.9531 766.057 77.74C795.331 119.637 823.746 162.127 851.282 205.186C824.108 196.016 794.06 188.923 766.452 180.585C757.214 177.795 746.677 175.605 737.75 172.523C742.212 177.084 746.594 181.72 750.895 186.432C790.423 229.884 813.386 281.248 810.533 340.785C808.619 384.595 791.893 426.458 763.092 459.525C750.24 474.463 735.481 487.693 720.92 500.926C755.243 518.509 788.364 546.414 810.251 578.253C847.045 632.587 860.951 699.231 848.957 763.747C846.736 766.356 838.239 807.09 831.808 817.579C829.847 820.778 829.001 824.55 826.913 827.762C827.087 826.312 830.321 818.848 831.114 816.902C853.097 762.938 856.51 701.156 839.6 645.309C838.945 643.143 838.449 640.655 837.32 638.676L836.801 639.144C836.894 639.362 836.987 639.579 837.079 639.797C841.718 655.011 844.993 669.534 846.978 685.363C853.343 734.107 845.783 783.657 825.173 828.286C821.303 836.564 816.429 844.633 811.785 852.506C809.512 856.36 805.476 861.713 803.524 865.476C800.207 868.817 796.049 875.272 792.741 879.28C785.005 888.787 776.557 897.691 767.469 905.916C732.523 937.689 680.681 964.748 635.547 978.197C608.853 986.152 576.306 990.283 548.481 991.395C547.073 991.452 543.97 991.225 542.892 991.374C541.043 989.919 539.14 988.488 537.422 986.887C535.396 982.748 520.219 973.253 515.62 970.226C514.242 968.94 510.361 966.392 508.615 965.188L520.494 964.56C530.4 964.416 541.349 963.614 551.236 962.914C564.92 962.005 578.265 959.232 591.708 956.554C654.45 944.056 714.805 917.22 757.723 868.485C779.729 843.496 797.453 815.552 806.736 783.396C808.261 778.114 810.714 768.916 810.349 763.445C814.571 739.824 816.321 716.502 813.356 692.686C812.942 689.356 812.085 684.941 812.042 681.753L812.039 681.008C812.097 673.562 809.156 662.314 807.094 655.061C796.396 617.437 772.853 587.288 744.15 561.403C718.906 539.557 688.902 523.918 656.536 515.736L655.541 515.303C655.245 513.804 656.748 512.869 657.917 511.718C667.733 502.189 676.636 492.535 686.79 483.291C725.793 447.786 768.464 410.444 773.234 354.101C773.423 351.871 773.455 351.464 772.022 349.922C774.264 322.047 771.568 296.387 761.552 270.186C743.129 221.998 704.572 182.827 657.737 161.684C653.165 159.62 648.514 157.765 643.938 155.713L644 155.019L640.049 153.008L639.82 152.295C642.398 150.72 651.77 150.804 654.333 148.709C666.21 139.001 676.7 127.914 688.178 117.816C689.849 116.346 688.668 114.877 691.467 113.189C696.39 110.222 702.644 104.046 706.612 100.201L706.251 98.8411C713.087 95.5522 717.073 89.8025 721.89 84.0177L723.196 84.3442L724.219 83.4665C724.666 80.0481 726.235 79.5207 729.803 77.8585C737.314 74.3593 741.067 63.8436 744.014 61.3344C748.697 61.2072 751.19 68.2131 755.947 72.6711C755.656 70.5536 735.33 40.8157 732.555 37.9404C729.544 40.8353 726.98 44.4286 724.008 47.3682C702.479 68.6638 682.669 91.609 661.909 113.644L641.888 134.683C638.349 138.431 634.289 142.517 631.301 146.711C630.537 147.783 630.702 150.068 630.73 151.421L624.627 149.867L623.238 149.047C623.216 147.352 636.229 133.754 638.494 131.294C623.854 127.475 609.132 123.389 594.209 120.755C517.335 107.184 435.439 112.364 363.722 144.734C299.481 173.728 245.277 224.551 227.195 294.427C214.918 340.988 221.999 390.536 246.827 431.794C259.786 453.452 276.778 472.423 296.882 487.682C299.298 489.494 308.194 495.551 308.047 498.182C304.633 501.479 296.79 505.49 292.436 508.583C281.472 516.372 270.52 524.407 260.215 533.047C210.133 575.043 177.155 642.528 175.989 708.18C174.178 776.635 200.27 842.886 248.276 891.72C280.16 924.686 318.078 948.196 360.566 965.14C371.648 969.56 384.772 972.785 394.539 976.728L394.711 977.425C400.126 979.397 409.059 981.502 414.733 982.862C449.45 991.035 485.087 994.63 520.736 993.557C524.796 993.418 530.876 993.867 534.585 992.986C535.785 992.356 536.709 992.503 537.989 992.525C619.124 993.933 699.337 963.35 761.839 912.223C767.342 907.721 773.172 901.634 778.326 896.72L778.564 897.035C777.566 900.803 759.854 914.216 758.049 918.375C756.12 921.716 727.532 940.312 722.714 943.205C628.16 999.972 505.868 1010.74 400.022 983.82C322.86 963.342 248.753 917.75 207.549 847.913C132.544 720.787 174.281 572.092 300.357 497.408C271.683 477.219 248.714 449.959 233.681 418.276C212.685 374.011 210.185 323.206 226.732 277.093C249.329 215.287 299.244 168.356 358.196 141.321C429.424 108.655 514.142 100.894 590.917 114.863C609.169 118.184 624.837 121.217 642.282 127.581C653.725 114.591 666.181 101.675 677.966 88.8883C696.019 69.2992 714.33 48.6463 733.11 29.7963Z"/><path fill="#01FA98" fill-opacity="0.98823529" d="M630.73 151.421C630.702 150.068 630.537 147.783 631.301 146.711C634.289 142.517 638.349 138.431 641.888 134.683L661.909 113.644C682.669 91.609 702.479 68.6638 724.008 47.3682C726.98 44.4286 729.544 40.8353 732.555 37.9404C735.33 40.8157 755.656 70.5536 755.947 72.6711C751.19 68.2131 748.697 61.2072 744.014 61.3344C741.067 63.8436 737.314 74.3593 729.803 77.8585C726.235 79.5207 724.666 80.0481 724.219 83.4665L723.196 84.3442L721.89 84.0177C717.073 89.8025 713.087 95.5522 706.251 98.8411L706.612 100.201C702.644 104.046 696.39 110.222 691.467 113.189C688.668 114.877 689.849 116.346 688.178 117.816C676.7 127.914 666.21 139.001 654.333 148.709C651.77 150.804 642.398 150.72 639.82 152.295L640.049 153.008L644 155.019L643.938 155.713C640.165 154.718 634.583 152.684 630.73 151.421Z"/><path fill="#01D26A" d="M450.658 595.511C463.796 599.962 481.264 604.674 493.472 610.138C473.17 622.587 459.142 632.598 441.819 649.559C408.242 682.433 398.307 729.494 422.563 771.111C435.732 792.573 459.284 805.905 483.273 811.318C513.935 818.235 546.286 814.161 573.098 797.56C592.049 785.826 608.436 764.568 612.684 742.439L614.609 743.474C614.19 745.068 613.753 746.657 613.298 748.241C591.775 823.725 483.475 838.688 431.263 787C407.83 763.803 400.406 725.992 409.944 694.828C420.294 661.012 456.199 627.237 487.274 610.582C476.74 607.624 461.835 602.134 451.137 598.585C445.727 601.382 438.435 608.422 433.488 612.376C405.156 635.025 382.67 666.161 375.517 702.212L374.942 702.569L375.183 702.98L374.469 700.301C374.529 699 374.774 697.658 374.991 696.37C382.046 654.435 417.357 619.304 450.658 595.511Z"/><path fill="#01D26A" d="M488.756 525.897C492.979 523.817 496.208 528.823 493.747 531.958C487.913 539.391 476.749 547.18 469.142 552.857C457.329 561.673 446.617 570.722 435.263 579.784C436.31 581.843 448.575 583.5 451.38 584.426C500.613 600.685 553.954 615.433 590.31 654.905C596.646 661.777 603.444 670.696 607.739 678.997C617.854 698.921 620.298 721.866 614.609 743.474L612.684 742.439C616.478 719.488 615.653 700.669 604.662 679.472C588.794 648.871 556.108 628.198 525.483 614.365C518.812 611.352 510.156 607.301 503.173 605.112C486.875 598.279 465.761 592.068 448.595 586.459C446.423 588.232 443.917 589.898 441.606 591.514L441.327 590.43C442.117 588.681 444.408 586.674 445.846 585.237C440.233 582.275 434.642 581.874 428.414 580.294C420.037 572.066 436.89 561.274 442.905 557.004C443.749 555.381 448.109 552.558 450.425 553.701C461.299 546.225 476.787 531.078 488.756 525.897Z"/><path fill="#FEFDFE" d="M488.756 525.897C490.267 526.775 491.344 527.131 491.981 528.708C491.957 530.277 491.714 531.611 490.423 532.619C474.76 544.843 459.25 557.249 443.863 569.839C439.778 573.181 435.485 576.399 431.032 579.197C429.619 577.865 428.254 576.68 427.065 575.141C432.601 568.417 437.783 564.312 444.377 558.646L442.905 557.004C443.749 555.381 448.109 552.558 450.425 553.701C461.299 546.225 476.787 531.078 488.756 525.897Z"/><path fill="#01D26A" d="M442.905 557.004C443.749 555.381 448.109 552.558 450.425 553.701C448.678 555.168 446.182 557.404 444.377 558.646L442.905 557.004Z"/><path fill="#00F7C4" d="M803.524 865.476C805.476 861.713 809.512 856.36 811.785 852.506C816.429 844.633 821.303 836.564 825.173 828.286C845.783 783.657 853.343 734.107 846.978 685.363C844.993 669.534 841.718 655.011 837.079 639.797C836.987 639.579 836.894 639.362 836.801 639.144L837.32 638.676C838.449 640.655 838.945 643.143 839.6 645.309C856.51 701.156 853.097 762.938 831.114 816.902C830.321 818.848 827.087 826.312 826.913 827.762C829.001 824.55 829.847 820.778 831.808 817.579C838.239 807.09 846.736 766.356 848.957 763.747C841.793 799.582 829.679 832.4 808.783 862.607C807.745 864.108 803.64 870.841 802.303 871.517C795.998 882.669 768.649 911.115 758.049 918.375C759.854 914.216 777.566 900.803 778.564 897.035L778.326 896.72C773.172 901.634 767.342 907.721 761.839 912.223C699.337 963.35 619.124 993.933 537.989 992.525C536.709 992.503 535.785 992.356 534.585 992.986C530.876 993.867 524.796 993.418 520.736 993.557C485.087 994.63 449.45 991.035 414.733 982.862C409.059 981.502 400.126 979.397 394.711 977.425L394.539 976.728L395.354 976.866C398.824 977.475 405.442 979.416 409.07 980.356C417.567 982.64 426.152 984.584 434.804 986.182C458.394 990.325 482.557 992.523 506.532 992.87C519.059 993.052 530.836 991.658 542.892 991.374C543.97 991.225 547.073 991.452 548.481 991.395C576.306 990.283 608.853 986.152 635.547 978.197C680.681 964.748 732.523 937.689 767.469 905.916C776.557 897.691 785.005 888.787 792.741 879.28C796.049 875.272 800.207 868.817 803.524 865.476Z"/><path fill="#01D26A" d="M446.457 950.326C451.019 947.756 473.759 951.434 477.08 954.638C468.339 954.115 455.144 951.848 446.457 950.326Z"/></svg>